<svg xmlns="http://www.w3.org/2000/svg" viewBox="0 0 64 64" role="img" aria-label="Boobstrap">
  <defs>
    <linearGradient id="background" x1="8" y1="4" x2="56" y2="60" gradientUnits="userSpaceOnUse">
      <stop stop-color="#2b1027" />
      <stop offset="1" stop-color="#140a15" />
    </linearGradient>
    <linearGradient id="mark" x1="8" y1="12" x2="55" y2="52" gradientUnits="userSpaceOnUse">
      <stop stop-color="#f28abb" />
      <stop offset="1" stop-color="#d83387" />
    </linearGradient>
  </defs>
  <rect width="64" height="64" rx="15" fill="url(#background)" />
  <g transform="translate(4 11)" fill="url(#mark)">
    <path d="M6 3c-8 9-7 25 4 33 5 4 11 5 17 3-8-4-14-12-14-21 0-6 2-11 6-15H6Z" />
    <path d="M50 3c8 9 7 25-4 33-5 4-11 5-17 3 8-4 14-12 14-21 0-6-2-11-6-15h13Z" />
    <path d="M28 30s-9-5.4-9-11a5.2 5.2 0 0 1 9-3.5 5.2 5.2 0 0 1 9 3.5c0 5.6-9 11-9 11Z" />
  </g>
</svg>
